#!OML:ASF I:\Actors\actors\Patient Classification 1\Patient 1\Session 1\Subject1.ASF
:FULLY-SPECIFIED
:DEGREES
387
root 0.144841 17.5775 7.86861 12.0238 -18.1394 -7.16869
lowerback 0.34851 -2.74705 5.12309
upperback -2.62753 -3.46656 6.16853
thorax -2.83406 -1.7927 3.61511
lowerneck 3.4032 -7.06067 -4.77247
upperneck 14.4939 -9.93688 2.54331
head 4.64262 -5.09073 1.36882
rclavicle 1.63003e-014 -3.49861e-014
rhumerus 0.670436 41.9572 -92.5521
rradius 133.739
rwrist 23.4891
rhand -24.7563 -65.7114
rfingers 7.12502
rthumb 1.74693 -264.316
lclavicle 1.63003e-014 -3.49861e-014
lhumerus -5.31822 -50.2322 103.571
lradius 126.255
lwrist 18.449
lhand -50.0893 -27.1759
lfingers 7.12502
lthumb -22.6748 1.51196
rfemur -15.5082 24.2924 18.9979
rtibia 9.5852
rfoot -9.16904 -9.57898
rtoes -5.45516
lfemur 5.25339 -44.5043 -15.9983
ltibia -3.45778
lfoot -57.9179 57.7856
ltoes 36.3487
388
root 0.140493 17.581 7.86275 11.8878 -18.067 -7.19879
lowerback 0.287528 -2.65231 5.23757
upperback -2.59982 -3.34795 5.90216
thorax -2.79567 -1.73708 3.26508
lowerneck 3.62671 -7.09045 -3.98903
upperneck 14.5166 -9.9748 2.42717
head 4.54834 -5.07643 1.20415
rclavicle -6.36111e-014 1.29608e-013
rhumerus 0.070267 41.1237 -92.7892
rradius 132.384
rwrist 26.7278
rhand -24.8443 -66.1236
rfingers 7.12502
rthumb 1.6619 -263.903
lclavicle -6.36111e-014 1.29608e-013
lhumerus -5.17686 -49.4004 103.219
lradius 125.433
lwrist 10.9648
lhand -50.4929 -34.627
lfingers 7.12502
lthumb -23.0621 -5.987
rfemur -15.3001 24.3391 19.1374
rtibia 9.53275
rfoot -9.14512 -9.67549
rtoes -5.42089
lfemur 5.51579 -44.7327 -16.1264
ltibia -3.48999
lfoot -58.1825 57.885
ltoes 36.3383
389
root 0.132165 17.5852 7.85704 11.6974 -17.9353 -7.20678
lowerback 0.292431 -2.81501 5.04692
upperback -2.47019 -3.57806 5.91231
thorax -2.64686 -1.84584 3.38184
lowerneck 3.29541 -6.85022 -3.90968
upperneck 14.7645 -9.66439 2.5382
head 4.69302 -4.91218 1.22284
rclavicle -5.25785e-014 1.35174e-014
rhumerus -0.471944 40.939 -92.8283
rradius 130.956
rwrist 30.0419
rhand -24.6828 -65.9027
rfingers 7.12502
rthumb 1.81791 -264.125
lclavicle -5.25785e-014 1.35174e-014
lhumerus -4.15507 -46.3659 102.572
lradius 123.377
lwrist -3.52571
lhand -51.8283 -39.8709
lfingers 7.12502
lthumb -24.3429 -11.3968
rfemur -14.9996 24.502 19.2953
rtibia 9.46824
rfoot -9.15346 -9.94468
rtoes -5.3664
lfemur 5.84259 -44.8885 -16.2836
ltibia -3.55708
lfoot -58.0927 58.0579
ltoes 36.0152
390
root 0.129028 17.5867 7.84702 11.5535 -17.8911 -7.24066
lowerback 0.376194 -2.92558 4.99675
upperback -2.35323 -3.72819 5.86267
thorax -2.56943 -1.91876 3.36161
lowerneck 2.93458 -6.62768 -3.7078
upperneck 14.9161 -9.37055 2.61907
head 4.79901 -4.74975 1.21173
rclavicle -8.34896e-015 2.38542e-015
rhumerus -1.16016 40.7156 -93.0306
rradius 130.058
rwrist 30.1147
rhand -26.4701 -64.637
rfingers 7.12502
rthumb 0.0917535 -265.383
lclavicle -8.34896e-015 2.38542e-015
lhumerus -2.91763 -41.953 102.202
lradius 120.79
lwrist -19.6519
lhand -53.8854 -47.397
lfingers 7.12502
lthumb -26.3137 -19.2022
rfemur -14.8376 24.5591 19.4335
rtibia 9.47949
rfoot -9.15642 -10.0245
rtoes -5.17751
lfemur 6.05615 -44.9213 -16.3689
ltibia -3.5838
lfoot -58.0297 58.1314
ltoes 35.9139
391
root 0.128388 17.5866 7.8318 11.4259 -17.9421 -7.22538
lowerback 0.4856 -2.8438 5.069
upperback -2.2667 -3.61601 5.5992
thorax -2.56465 -1.86472 3.04684
lowerneck 2.78477 -6.5457 -3.54029
upperneck 15.3742 -9.34057 3.14503
head 4.47627 -4.68694 1.2362
rclavicle 5.76476e-015 -6.04305e-014
rhumerus -2.16783 40.5127 -93.4456
rradius 129.668
rwrist 31.6913
rhand -26.7698 -62.9695
rfingers 7.12502
rthumb -0.197775 -267.051
lclavicle 5.76476e-015 -6.04305e-014
lhumerus -1.53332 -37.1531 102.174
lradius 118.61
lwrist -31.456
lhand -52.6191 -42.4497
lfingers 7.12502
lthumb -25.1008 -14.0796
rfemur -14.8066 24.5234 19.4785
rtibia 9.5792
rfoot -9.1597 -9.92737
rtoes -5.0314
lfemur 6.20338 -44.9605 -16.495
ltibia -3.56041
lfoot -58.3051 58.0824
ltoes 36.152
